<mxfile host="app.diagrams.net" modified="2023-03-07T01:51:32.308Z" agent="5.0 (Windows NT 10.0; Win64; x64) AppleWebKit/537.36 (KHTML, like Gecko) Chrome/110.0.0.0 Safari/537.36" etag="_GI0VEOOiL-pq77rN0Yi" version="21.0.2" type="github">
  <diagram name="第 1 页" id="IzGdFSTVgvVU_p7FWa5S">
    <mxGraphModel dx="1434" dy="796" grid="1" gridSize="10" guides="1" tooltips="1" connect="1" arrows="1" fold="1" page="1" pageScale="1" pageWidth="827" pageHeight="1169" math="0" shadow="0">
      <root>
        <mxCell id="0" />
        <mxCell id="1" parent="0" />
        <mxCell id="Cg38LYRmBruIkZ_Xe5Gz-4" value="" style="rounded=0;whiteSpace=wrap;html=1;" vertex="1" parent="1">
          <mxGeometry x="190" y="100" width="120" height="30" as="geometry" />
        </mxCell>
        <mxCell id="Cg38LYRmBruIkZ_Xe5Gz-5" value="" style="rounded=0;whiteSpace=wrap;html=1;" vertex="1" parent="1">
          <mxGeometry x="320" y="100" width="120" height="30" as="geometry" />
        </mxCell>
        <mxCell id="Cg38LYRmBruIkZ_Xe5Gz-6" value="" style="rounded=0;whiteSpace=wrap;html=1;" vertex="1" parent="1">
          <mxGeometry x="450" y="100" width="120" height="30" as="geometry" />
        </mxCell>
        <mxCell id="Cg38LYRmBruIkZ_Xe5Gz-7" value="" style="rounded=0;whiteSpace=wrap;html=1;" vertex="1" parent="1">
          <mxGeometry x="580" y="100" width="280" height="30" as="geometry" />
        </mxCell>
        <mxCell id="Cg38LYRmBruIkZ_Xe5Gz-8" value="" style="rounded=0;whiteSpace=wrap;html=1;" vertex="1" parent="1">
          <mxGeometry x="1050.21" y="100" width="120" height="30" as="geometry" />
        </mxCell>
        <mxCell id="Cg38LYRmBruIkZ_Xe5Gz-1" value="" style="rounded=0;whiteSpace=wrap;html=1;" vertex="1" parent="1">
          <mxGeometry x="190" y="210" width="212.20930232558138" height="160" as="geometry" />
        </mxCell>
        <mxCell id="Cg38LYRmBruIkZ_Xe5Gz-2" value="" style="rounded=0;whiteSpace=wrap;html=1;" vertex="1" parent="1">
          <mxGeometry x="444.65116279069764" y="210" width="212.20930232558138" height="160" as="geometry" />
        </mxCell>
        <mxCell id="Cg38LYRmBruIkZ_Xe5Gz-3" value="" style="rounded=0;whiteSpace=wrap;html=1;" vertex="1" parent="1">
          <mxGeometry x="700.7906976744185" y="210" width="212.20930232558138" height="160" as="geometry" />
        </mxCell>
        <mxCell id="Cg38LYRmBruIkZ_Xe5Gz-10" value="" style="rounded=0;whiteSpace=wrap;html=1;" vertex="1" parent="1">
          <mxGeometry x="958.0006976744186" y="210" width="212.20930232558138" height="160" as="geometry" />
        </mxCell>
        <mxCell id="Cg38LYRmBruIkZ_Xe5Gz-11" value="" style="rounded=0;whiteSpace=wrap;html=1;" vertex="1" parent="1">
          <mxGeometry x="190" y="400" width="212.20930232558138" height="160" as="geometry" />
        </mxCell>
        <mxCell id="Cg38LYRmBruIkZ_Xe5Gz-12" value="" style="rounded=0;whiteSpace=wrap;html=1;" vertex="1" parent="1">
          <mxGeometry x="444.65116279069764" y="400" width="212.20930232558138" height="160" as="geometry" />
        </mxCell>
        <mxCell id="Cg38LYRmBruIkZ_Xe5Gz-13" value="" style="rounded=0;whiteSpace=wrap;html=1;" vertex="1" parent="1">
          <mxGeometry x="700.7906976744185" y="400" width="212.20930232558138" height="160" as="geometry" />
        </mxCell>
        <mxCell id="Cg38LYRmBruIkZ_Xe5Gz-14" value="" style="rounded=0;whiteSpace=wrap;html=1;" vertex="1" parent="1">
          <mxGeometry x="958.0006976744186" y="400" width="212.20930232558138" height="160" as="geometry" />
        </mxCell>
        <mxCell id="Cg38LYRmBruIkZ_Xe5Gz-15" value="基础指标" style="rounded=0;whiteSpace=wrap;html=1;" vertex="1" parent="1">
          <mxGeometry x="200" y="220" width="190" height="70" as="geometry" />
        </mxCell>
        <mxCell id="Cg38LYRmBruIkZ_Xe5Gz-16" value="业务指标" style="rounded=0;whiteSpace=wrap;html=1;" vertex="1" parent="1">
          <mxGeometry x="200" y="300" width="88.9" height="60" as="geometry" />
        </mxCell>
        <mxCell id="Cg38LYRmBruIkZ_Xe5Gz-17" value="工单指标" style="rounded=0;whiteSpace=wrap;html=1;" vertex="1" parent="1">
          <mxGeometry x="301.1" y="300" width="88.9" height="60" as="geometry" />
        </mxCell>
      </root>
    </mxGraphModel>
  </diagram>
</mxfile>
